<svg id="Layer_1" data-name="Layer 1" xmlns="http://www.w3.org/2000/svg" viewBox="0 0 500 500"><defs><style>.cls-1{fill:#454545;}.cls-2{fill:#f05455;}.cls-3{fill:#fff;}</style></defs><title>Cross</title><path class="cls-1" d="M250,500C111.93,500,0,388.07,0,250S111.93,0,250,0,500,111.93,500,250,388.07,500,250,500Zm0-479.17C123.64,20.83,20.83,123.64,20.83,250S123.64,479.17,250,479.17,479.17,376.36,479.17,250,376.36,20.83,250,20.83Z"/><circle class="cls-2" cx="250" cy="250" r="250"/><path class="cls-3" d="M398.19,388.33,389,397.56l-139-139-139,139-9.23-9.23,139-139-139-139,9.23-9.22,139,139,139-139,9.23,9.22-139,139Z"/></svg>